<svg version="1.1" id="Layer_1" xmlns="http://www.w3.org/2000/svg" xmlns:xlink="http://www.w3.org/1999/xlink" x="0px" y="0px"
	 width="100%" viewBox="0 0 8000 800" enable-background="new 0 0 8000 800" xml:space="preserve">
<path fill="#45B3E0" opacity="1.000000" stroke="none" 
	d="
M6072.000000,802.000000 
	C4048.000000,802.000000 2025.000000,802.000000 2.000000,802.000000 
	C2.000000,535.333313 2.000000,268.666656 2.000000,2.000000 
	C2668.666748,2.000000 5335.333496,2.000000 8002.000000,2.000000 
	C8002.000000,268.666656 8002.000000,535.333313 8002.000000,802.000000 
	C7359.000000,802.000000 6716.000000,802.000000 6072.000000,802.000000 
M96.641212,372.342529 
	C121.040237,420.463257 152.048233,464.186096 186.381973,505.562683 
	C269.992279,606.323853 366.126587,694.034607 468.624603,775.046021 
	C470.101532,776.213379 471.821991,777.072510 473.419464,778.069641 
	C475.772949,776.320190 477.667603,774.976440 479.493469,773.544922 
	C551.459412,717.122253 619.676819,656.508057 683.499756,590.987122 
	C726.348999,546.997925 766.814270,500.968933 802.347412,450.790985 
	C829.391479,412.600708 853.287476,372.628143 869.177063,328.347717 
	C884.031677,286.951447 889.090149,245.155991 876.241028,201.951385 
	C866.039429,167.648911 851.633057,135.841293 828.247681,108.475159 
	C756.560120,24.584982 633.730713,17.882235 549.007996,87.827049 
	C515.551453,115.447899 492.499176,150.423508 477.507843,190.925339 
	C476.389862,193.945786 475.098572,196.902084 473.218689,201.538651 
	C470.919464,195.504196 469.324249,191.197006 467.643127,186.923630 
	C449.089447,139.760880 420.820465,99.796173 377.203064,73.075165 
	C305.100586,28.903511 231.665497,27.158302 159.402115,72.554176 
	C118.037727,98.539299 92.490059,137.616287 76.253914,183.154953 
	C62.102253,222.847107 59.227985,263.026794 70.206474,303.966003 
	C76.444504,327.227875 85.452797,349.401672 96.641212,372.342529 
M1175.000000,724.172424 
	C1217.654175,724.073242 1260.312012,724.270081 1302.961182,723.756226 
	C1326.008667,723.478577 1348.786621,720.090210 1370.997314,713.760803 
	C1430.283936,696.865662 1470.691895,660.292480 1487.515625,600.048218 
	C1496.128052,569.207336 1497.961182,537.628662 1493.485107,505.916504 
	C1488.336914,469.442749 1473.384521,437.751343 1445.601929,412.815247 
	C1425.630005,394.889465 1402.169312,383.380859 1376.683350,375.648682 
	C1372.606323,374.411774 1368.549805,373.107178 1364.968384,371.985596 
	C1362.522583,365.329620 1364.681030,362.068542 1370.234497,359.498291 
	C1384.845581,352.736145 1398.131104,343.785492 1409.671631,332.538330 
	C1437.251465,305.659882 1451.570312,272.945282 1451.973389,234.323120 
	C1452.288574,204.111557 1446.691040,175.251953 1430.909790,149.095322 
	C1411.111694,116.281143 1380.975464,97.109924 1345.162354,86.019226 
	C1320.790649,78.471703 1295.672485,75.697189 1270.213379,75.696007 
	C1190.568481,75.692299 1110.923462,75.672058 1031.278564,75.693382 
	C1028.067139,75.694244 1024.855713,76.052223 1021.866882,76.230537 
	C1019.728333,88.174950 1020.172363,715.994690 1022.394165,724.172546 
	C1072.438843,724.172546 1122.719360,724.172546 1175.000000,724.172424 
M4696.624023,685.631714 
	C4710.394531,672.804443 4721.739746,658.098877 4730.958984,641.697754 
	C4734.970215,634.561829 4735.125977,634.649475 4744.296387,639.018127 
	C4744.296387,666.691528 4744.296387,694.876770 4744.296387,724.106567 
	C4768.093262,724.116821 4790.837402,724.423218 4813.387695,723.912170 
	C4815.640625,705.548340 4814.733887,386.193054 4812.525879,378.969818 
	C4727.424316,378.969818 4642.262207,378.969818 4556.273926,378.969818 
	C4555.722656,399.369385 4555.436523,419.112976 4556.468262,439.835541 
	C4567.356445,439.835541 4577.288086,439.835571 4587.220215,439.835571 
	C4597.553223,439.835571 4607.886230,439.835571 4618.219238,439.835571 
	C4628.218750,439.835571 4638.218262,439.835571 4648.217773,439.835571 
	C4658.550781,439.835571 4668.883789,439.835571 4679.216797,439.835571 
	C4689.216309,439.835571 4699.216797,439.744385 4709.214844,439.860962 
	C4719.382812,439.979492 4729.606934,439.324860 4740.186035,440.385254 
	C4740.186035,462.307312 4740.710449,482.971527 4740.008789,503.593994 
	C4739.511719,518.195984 4738.360352,532.922729 4735.766113,547.280212 
	C4725.535156,603.894226 4692.837402,640.583862 4636.981445,655.859070 
	C4599.757812,666.038940 4561.837891,667.511292 4523.979004,661.576050 
	C4456.733398,651.033997 4409.372559,614.236206 4383.271973,550.935364 
	C4371.352051,522.027222 4365.278809,491.665131 4362.293457,460.727356 
	C4357.992188,416.148315 4357.961914,371.540924 4364.019043,327.069580 
	C4368.085449,297.213593 4375.287109,268.183746 4388.111816,240.772430 
	C4412.537598,188.566132 4452.391113,155.001602 4508.758301,141.784103 
	C4551.966309,131.652466 4595.259766,131.975296 4638.563477,141.493576 
	C4668.871582,148.155396 4695.813965,161.053467 4717.758789,183.463242 
	C4729.035645,194.979263 4738.226562,207.993835 4745.969238,222.093246 
	C4749.905762,229.263596 4754.812012,230.950470 4762.369141,227.921753 
	C4763.903320,227.306854 4765.313965,226.369354 4766.749512,225.525665 
	C4779.103027,218.264511 4791.469238,211.024673 4803.779297,203.689682 
	C4805.970215,202.384247 4807.916016,200.667770 4810.035156,199.096634 
	C4788.224609,141.379395 4747.505371,104.260086 4690.634766,84.104149 
	C4662.507812,74.135361 4633.322754,69.466576 4603.589844,67.346924 
	C4560.307129,64.261269 4517.709473,67.317802 4475.994141,79.742470 
	C4414.124023,98.170303 4365.232422,133.900360 4330.491699,188.673325 
	C4299.770996,237.107498 4285.307129,290.697510 4280.075684,347.136353 
	C4276.312500,387.728424 4276.894043,428.323029 4281.661621,468.866791 
	C4287.042480,514.622559 4298.625000,558.472595 4320.413574,599.314209 
	C4349.992188,654.758545 4393.221191,694.793396 4452.755371,716.388916 
	C4494.505859,731.533264 4537.565430,736.164978 4581.646484,732.287292 
	C4624.209473,728.543152 4662.999512,715.272766 4696.624023,685.631714 
M6250.263672,306.660095 
	C6234.237305,268.291016 6205.588379,244.575806 6165.821289,233.560135 
	C6136.500488,225.438232 6106.623047,224.095871 6076.593262,226.710464 
	C6051.754395,228.873047 6028.336914,236.354324 6006.715820,249.078598 
	C5984.768555,261.994385 5967.299805,279.584351 5952.690918,300.240845 
	C5947.920898,306.986206 5947.824707,306.918213 5939.097656,302.231750 
	C5939.097656,214.944809 5939.097656,127.092979 5939.097656,38.704674 
	C5914.850098,38.704674 5891.642090,38.704674 5868.504395,38.704674 
	C5866.277832,46.989799 5866.164062,714.474609 5868.314453,723.279297 
	C5881.124512,725.146301 5931.731934,724.536560 5939.525391,722.153503 
	C5939.525391,718.495972 5939.525391,714.552734 5939.525391,710.609436 
	C5939.525391,634.279236 5939.501953,557.949036 5939.550781,481.618835 
	C5939.558594,469.954956 5939.500488,458.267883 5940.175293,446.632324 
	C5941.608887,421.926208 5945.434082,397.620789 5954.111328,374.281097 
	C5962.425293,351.918762 5975.176270,332.675079 5994.432617,318.267822 
	C6038.643066,285.189972 6087.643555,281.683807 6138.851074,296.618988 
	C6159.727051,302.707581 6174.169434,317.603210 6182.844238,337.574280 
	C6185.749023,344.261230 6188.060059,351.291992 6189.832520,358.368469 
	C6194.891602,378.567566 6195.457031,399.254883 6195.470215,419.934052 
	C6195.533691,516.930054 6195.491699,613.926086 6195.524414,710.922119 
	C6195.525879,715.100830 6195.894043,719.279419 6196.090820,723.439453 
	C6220.437012,723.439453 6243.580078,723.439453 6267.187500,723.439453 
	C6267.418945,720.145447 6267.761230,717.548889 6267.760742,714.952271 
	C6267.758301,609.956665 6267.979492,504.959961 6267.541016,399.966064 
	C6267.409668,368.509766 6263.030762,337.500092 6250.263672,306.660095 
M1984.458496,675.455383 
	C1999.397095,659.101990 2011.160645,640.836487 2018.982178,620.030212 
	C2017.530396,618.789246 2016.852417,618.026367 2016.017578,617.524109 
	C2003.453613,609.965820 1990.920166,602.354492 1978.272949,594.937378 
	C1967.928101,588.870300 1964.301758,589.969543 1958.754517,600.458679 
	C1940.517456,634.943176 1912.838135,657.008118 1874.202515,664.481201 
	C1845.422607,670.047913 1816.570801,670.521240 1787.859131,664.163025 
	C1741.750732,653.952332 1709.783569,626.861450 1692.649292,582.783752 
	C1682.647705,557.054504 1678.472778,530.114624 1677.604980,502.619751 
	C1677.546509,500.763489 1678.114380,498.887482 1678.517090,496.169556 
	C1683.357666,496.169556 1687.626465,496.169586 1691.895264,496.169586 
	C1794.560913,496.169556 1897.226685,496.169678 1999.892334,496.168610 
	C2002.892212,496.168579 2005.899902,496.292542 2008.890747,496.124573 
	C2019.500610,495.528717 2023.789062,490.806213 2023.723633,481.478302 
	C2023.580811,461.150543 2024.229736,440.814941 2023.947266,420.491028 
	C2023.668579,400.438080 2020.783813,380.633026 2015.817017,361.198059 
	C1998.390015,293.008209 1955.661743,249.899887 1887.355469,232.609741 
	C1855.302124,224.496201 1822.687378,223.556992 1790.052490,227.838394 
	C1708.514404,238.535385 1652.170288,282.188141 1621.321899,358.472351 
	C1608.175537,390.981964 1602.693726,425.081146 1601.249634,459.926727 
	C1599.246460,508.259064 1602.985962,555.908447 1620.149170,601.624878 
	C1644.061279,665.318054 1688.306519,707.029053 1754.619873,724.479919 
	C1791.855957,734.278931 1829.624390,735.795532 1867.674683,731.398499 
	C1912.427246,726.226929 1952.020264,709.831238 1984.458496,675.455383 
M5045.020508,496.169159 
	C5144.008789,496.169067 5242.997070,496.169556 5341.985352,496.166138 
	C5344.984863,496.166046 5348.004883,496.346008 5350.979492,496.061188 
	C5359.528320,495.242554 5363.540527,491.331940 5363.686035,482.649384 
	C5364.041504,461.326813 5364.318359,439.994354 5364.062012,418.672668 
	C5363.820801,398.608673 5360.775879,378.814423 5355.630371,359.440887 
	C5337.330078,290.545837 5293.323242,247.955780 5223.901855,231.832886 
	C5187.666992,223.417328 5151.118652,223.330948 5114.727539,230.226135 
	C5066.590332,239.347153 5025.770020,261.674744 4994.863281,300.375305 
	C4970.237305,331.211060 4955.569824,366.638702 4947.861328,405.140381 
	C4940.875488,440.034424 4939.996582,475.268890 4942.056641,510.640594 
	C4943.907715,542.409424 4949.464355,573.489807 4960.979004,603.278259 
	C4985.222168,665.998718 5029.122070,707.145691 5094.617676,724.396729 
	C5136.535156,735.437439 5178.950684,736.429016 5221.484375,729.370300 
	C5269.535156,721.395874 5309.223145,698.893250 5338.155762,658.979553 
	C5346.927734,646.877930 5354.301270,633.987915 5359.427734,619.312805 
	C5345.352539,610.916504 5331.981934,602.830750 5318.500977,594.933655 
	C5308.117188,588.851074 5304.579590,589.938843 5299.004883,600.487183 
	C5280.776367,634.979675 5253.044922,656.857422 5214.456543,664.527588 
	C5188.334961,669.719666 5162.017090,670.393372 5135.924316,665.813232 
	C5083.969238,656.693420 5048.341797,627.422791 5030.819824,577.175232 
	C5022.638184,553.713623 5018.916016,529.395142 5017.836914,504.642029 
	C5017.727539,502.124634 5018.273438,499.578705 5018.598633,496.169220 
	C5027.155273,496.169220 5035.093262,496.169220 5045.020508,496.169159 
M6525.709961,244.662781 
	C6504.810547,253.933105 6485.841797,266.117371 6469.488281,282.179077 
	C6434.762207,316.284698 6415.398438,358.341553 6405.857422,405.457611 
	C6398.860840,440.002808 6398.107422,474.912628 6400.056152,509.938141 
	C6401.823730,541.703552 6407.320801,572.799927 6418.745605,602.605713 
	C6440.887695,660.370178 6479.866699,701.197327 6539.502441,720.406250 
	C6591.515625,737.159973 6644.439453,738.391541 6697.247070,725.378845 
	C6752.119629,711.857300 6791.052246,678.191589 6814.580566,626.796021 
	C6815.636719,624.490540 6816.247559,621.981445 6817.205566,619.156311 
	C6803.280273,610.840393 6789.917480,602.736755 6776.429688,594.846008 
	C6766.181152,588.850037 6762.578125,589.998474 6756.968262,600.609375 
	C6738.730469,635.104675 6710.945312,656.898132 6672.379395,664.553162 
	C6646.599609,669.670227 6620.621094,670.349976 6594.851074,665.952026 
	C6542.921875,657.090149 6506.974609,628.280334 6489.185547,578.053833 
	C6480.772949,554.301636 6477.003906,529.677429 6475.864746,504.600677 
	C6475.750488,502.088593 6476.308594,499.545959 6476.637207,496.169067 
	C6481.550781,496.169067 6485.819336,496.169128 6490.088379,496.169128 
	C6593.385254,496.169098 6696.682129,496.169525 6799.979004,496.166260 
	C6802.977539,496.166168 6806.022461,496.456055 6808.966309,496.044006 
	C6817.721680,494.818695 6822.025391,490.460297 6821.922852,482.698669 
	C6821.641113,461.382904 6822.339844,440.054626 6822.089355,418.737885 
	C6821.853516,398.678253 6818.796387,378.895599 6813.684570,359.516022 
	C6795.952148,292.292084 6753.360352,249.933502 6685.973633,232.650620 
	C6661.887695,226.473053 6637.344727,225.141006 6612.588867,225.838440 
	C6582.955566,226.673279 6554.431641,232.475906 6525.709961,244.662781 
M3163.793213,235.084732 
	C3126.997070,224.371811 3089.517578,223.043182 3051.895996,228.488388 
	C3005.732666,235.169937 2965.082031,253.753586 2932.615967,288.084351 
	C2904.935303,317.354523 2887.821045,352.351440 2878.022461,391.142975 
	C2868.631592,428.318939 2866.590332,466.184937 2868.535156,504.262390 
	C2870.258057,537.991760 2875.564697,571.151306 2887.808594,602.900940 
	C2912.005127,665.644287 2955.756836,706.905518 3021.183838,724.291199 
	C3063.400879,735.509338 3106.146729,736.453369 3149.010498,729.275452 
	C3196.701904,721.289062 3236.040283,698.821289 3264.862793,659.357666 
	C3273.696289,647.263123 3281.134277,634.345032 3286.403809,619.249756 
	C3271.218750,610.240784 3256.491943,601.227722 3241.431152,592.812256 
	C3238.583984,591.221375 3234.409912,592.005249 3230.684570,591.679016 
	C3228.822510,595.179810 3227.275635,598.095459 3225.722168,601.007568 
	C3207.546387,635.078125 3180.028320,656.734131 3141.860352,664.438110 
	C3115.753174,669.707703 3089.441162,670.394714 3063.345703,665.873474 
	C3010.536621,656.723938 2974.681641,626.905701 2957.327881,575.709839 
	C2951.093262,557.317078 2947.484863,538.383362 2945.858154,519.059082 
	C2945.253174,511.872375 2944.814941,504.671661 2944.207275,496.169220 
	C2949.660645,496.169220 2953.900391,496.169220 2958.140137,496.169220 
	C3061.780273,496.169189 3165.420410,496.169678 3269.060547,496.166748 
	C3272.059570,496.166656 3275.081299,496.360748 3278.053223,496.067505 
	C3286.152588,495.268372 3289.814209,491.587830 3290.376465,483.511414 
	C3292.928711,446.839081 3293.060059,410.217590 3285.892822,373.981201 
	C3272.218262,304.848022 3233.963867,256.929413 3163.793213,235.084732 
M3989.000000,724.167786 
	C4046.521240,724.071899 4104.045898,724.373718 4161.340332,723.989014 
	C4163.416504,710.537598 4162.900391,669.343933 4160.527344,661.421143 
	C4147.195312,661.421143 4133.578613,661.421143 4119.961914,661.421143 
	C4106.295898,661.421143 4092.630371,661.421143 4078.964600,661.421143 
	C4065.298828,661.421143 4051.633057,661.421143 4037.967285,661.421143 
	C4024.634766,661.421143 4011.302490,661.421143 3997.969971,661.421143 
	C3984.304199,661.421143 3970.638428,661.421143 3956.972656,661.421143 
	C3943.306885,661.421143 3929.641357,661.421143 3915.975586,661.421143 
	C3902.309814,661.421143 3888.643311,661.505310 3874.978516,661.397339 
	C3861.479248,661.290710 3847.942627,661.891052 3833.574219,660.932617 
	C3834.035645,654.699524 3834.133789,649.738647 3834.811523,644.858276 
	C3837.460205,625.789734 3846.241455,609.559814 3858.256592,594.834351 
	C3872.050293,577.929565 3888.290039,563.548523 3905.556396,550.457703 
	C3938.217773,525.694214 3971.352539,501.555359 4004.285645,477.150055 
	C4037.520264,452.521179 4070.067871,427.068420 4098.672852,397.003418 
	C4104.866699,390.493225 4110.741699,383.645477 4116.368652,376.635864 
	C4154.302246,329.382935 4169.163086,275.844604 4160.155762,215.747238 
	C4149.713379,146.074615 4111.595703,99.571167 4044.282471,78.089371 
	C4007.281494,66.281197 3969.172852,64.388107 3930.578613,67.673813 
	C3875.767334,72.340195 3828.164551,92.957764 3788.006104,130.534225 
	C3772.402588,145.134445 3758.801025,161.415176 3747.640625,180.512573 
	C3762.144287,195.721115 3776.271729,210.733841 3790.662598,225.489838 
	C3794.371094,229.292358 3801.217529,228.243439 3804.654297,223.881302 
	C3806.085205,222.065170 3807.053467,219.888809 3808.270020,217.899475 
	C3828.768799,184.386978 3856.788574,159.682465 3893.776611,145.858536 
	C3932.506104,131.383621 3972.105225,130.885666 4011.730469,141.103760 
	C4049.836914,150.930191 4073.334961,175.899811 4081.241699,214.403580 
	C4091.169434,262.749573 4082.083496,307.001404 4050.807861,346.109741 
	C4031.049561,370.816895 4007.161621,391.019318 3982.068359,409.829742 
	C3949.536865,434.215973 3916.122803,457.435364 3883.839355,482.138123 
	C3858.192871,501.762848 3833.004395,522.105591 3808.834961,543.509705 
	C3782.447754,566.877686 3765.394287,596.330322 3758.508789,631.281189 
	C3752.731201,660.608765 3753.084961,690.266235 3753.522461,719.932007 
	C3753.540283,721.126099 3754.324219,722.308899 3754.992676,724.167847 
	C3832.444336,724.167847 3909.722168,724.167847 3989.000000,724.167786 
M2548.751709,458.999756 
	C2548.752686,500.994629 2548.657471,542.989807 2548.798340,584.984253 
	C2548.859863,603.325195 2549.750977,621.624451 2553.877197,639.616394 
	C2562.164307,675.746948 2581.010498,703.790955 2615.501465,719.644714 
	C2632.954102,727.666748 2651.538574,731.345825 2670.618164,732.796021 
	C2701.587402,735.149780 2731.860596,732.292969 2760.908936,720.606323 
	C2773.644043,715.482849 2785.424561,708.799744 2795.386963,698.105896 
	C2788.866211,683.348389 2782.467773,668.741943 2775.959717,654.184448 
	C2771.760254,644.790405 2767.833496,643.470154 2759.105225,649.485413 
	C2736.034180,665.385620 2710.309326,670.084961 2682.979004,668.063171 
	C2654.479492,665.954834 2633.955322,649.860901 2626.455078,622.303284 
	C2623.345215,610.877075 2621.763428,598.684448 2621.714600,586.831177 
	C2621.325684,492.178497 2621.462891,397.523590 2621.491699,302.869385 
	C2621.492432,300.042389 2622.071045,297.215576 2622.439453,293.845459 
	C2649.056152,293.845459 2674.688965,293.864227 2700.321777,293.840210 
	C2726.150146,293.816010 2751.982422,293.948730 2777.561279,293.756317 
	C2779.689209,279.292664 2779.135498,241.980164 2776.705566,234.309891 
	C2751.301514,234.309891 2725.668213,234.313354 2700.035156,234.308914 
	C2674.172852,234.304413 2648.310547,234.292068 2621.807373,234.282944 
	C2620.848633,195.390320 2622.066650,157.913849 2621.064697,119.107239 
	C2596.455078,123.162254 2573.267822,126.982887 2548.844727,131.007187 
	C2548.844727,165.401733 2548.844727,199.202377 2548.844727,234.239197 
	C2520.037598,234.239197 2492.563477,234.239197 2464.509521,234.239197 
	C2464.509521,254.585144 2464.509521,273.662506 2464.509521,294.007507 
	C2492.666504,294.007507 2520.140381,294.007507 2548.752197,294.007507 
	C2548.752197,349.179382 2548.752197,403.089539 2548.751709,458.999756 
M2180.407715,636.441711 
	C2181.662598,641.276184 2182.726074,646.169983 2184.202637,650.935791 
	C2196.039307,689.137451 2220.940674,714.372620 2259.365723,725.798950 
	C2284.246094,733.197449 2309.694336,734.866394 2335.522949,732.642090 
	C2358.338379,730.677429 2380.269531,725.713318 2400.523193,714.738037 
	C2408.634766,710.342407 2416.638184,705.610413 2422.429932,697.573364 
	C2416.000732,683.026123 2409.722656,668.716858 2403.354492,654.447693 
	C2398.984619,644.656128 2395.358154,643.283020 2386.616455,649.341187 
	C2364.209717,664.869873 2339.211426,669.715149 2312.553955,668.258606 
	C2281.879883,666.582520 2260.328125,649.604370 2252.923096,619.781311 
	C2250.062256,608.258423 2248.613770,596.090881 2248.569580,584.209290 
	C2248.219971,490.585205 2248.359863,396.959198 2248.389160,303.333801 
	C2248.390137,300.449951 2248.823975,297.566223 2249.124023,293.836517 
	C2275.822754,293.836517 2301.759277,293.901855 2327.695312,293.818115 
	C2353.531982,293.734711 2379.383057,294.192566 2404.993408,293.535645 
	C2407.134277,277.893372 2406.438232,241.606232 2403.733643,234.008041 
	C2352.582520,234.008041 2301.073730,234.008041 2248.348145,234.008041 
	C2248.348145,195.582367 2248.348145,158.112228 2248.348145,119.107048 
	C2223.495605,123.223885 2200.094482,127.100311 2176.114746,131.072571 
	C2176.114746,143.535324 2176.114746,154.826218 2176.114746,166.117126 
	C2176.114746,177.445465 2176.151855,188.773956 2176.104248,200.102097 
	C2176.057617,211.279312 2175.925537,222.456192 2175.821533,234.725769 
	C2146.951416,234.725769 2119.483398,234.725769 2090.937012,234.725769 
	C2091.168945,254.964676 2090.117920,274.055969 2091.693115,293.575348 
	C2120.202881,294.409637 2147.733643,293.087158 2176.114746,294.404083 
	C2176.114746,299.310364 2176.114746,303.242035 2176.114746,307.173706 
	C2176.115234,399.133179 2175.910889,491.093506 2176.298340,583.051331 
	C2176.370850,600.290161 2178.808594,617.519043 2180.407715,636.441711 
M5732.761719,293.836182 
	C5736.967773,293.715973 5741.173828,293.595795 5745.147949,293.482208 
	C5747.239746,278.801483 5746.599121,241.762070 5743.980957,234.012680 
	C5692.830078,234.012680 5641.320801,234.012680 5588.506836,234.012680 
	C5588.506836,195.524185 5588.506836,158.045502 5588.506836,119.101616 
	C5563.565918,123.249001 5540.154297,127.142044 5516.289551,131.110397 
	C5516.289551,143.696243 5516.289062,155.001801 5516.289062,166.307358 
	C5516.289062,177.640137 5516.383789,188.973907 5516.262695,200.305389 
	C5516.144043,211.465652 5516.808105,222.678986 5515.758789,234.640839 
	C5487.228027,234.640839 5460.003906,234.640839 5432.216309,234.640839 
	C5432.216309,254.630615 5432.216309,273.695740 5432.216309,294.042511 
	C5460.437012,294.042511 5487.900879,294.042511 5516.289551,294.042511 
	C5516.289551,299.585358 5516.289551,303.851593 5516.289551,308.117798 
	C5516.290527,400.779907 5516.293457,493.442017 5516.290527,586.104126 
	C5516.290039,607.510559 5517.934570,628.718018 5524.034668,649.371399 
	C5534.414062,684.511230 5555.923340,709.538269 5590.566895,722.718689 
	C5606.290039,728.700623 5622.610352,731.757568 5639.298340,732.871582 
	C5674.421387,735.216064 5708.556152,731.514404 5740.323730,714.982422 
	C5748.549316,710.702026 5756.480957,705.810303 5762.732422,697.626343 
	C5755.217773,680.680115 5747.690918,663.705627 5740.438477,647.349182 
	C5734.594238,645.498901 5730.445312,646.632202 5726.316895,649.549866 
	C5704.044434,665.291931 5678.855957,669.798828 5652.207031,668.216431 
	C5622.250488,666.437805 5601.175293,650.219604 5593.730469,621.036987 
	C5590.313477,607.643433 5588.908203,593.405823 5588.845703,579.540833 
	C5588.430176,487.880585 5588.623535,396.217499 5588.647461,304.555359 
	C5588.648438,301.314514 5588.965332,298.073761 5589.187500,293.836121 
	C5636.960449,293.836121 5683.885742,293.836121 5732.761719,293.836182 
M6952.191406,243.578537 
	C6952.191406,403.395813 6952.191406,563.213074 6952.191406,724.010803 
	C6976.965332,724.172546 7000.361328,724.468079 7024.459961,723.835266 
	C7024.459961,718.107666 7024.459473,713.803894 7024.459473,709.500122 
	C7024.459473,636.528809 7024.184082,563.555786 7024.627930,490.587128 
	C7024.761230,468.642395 7026.117676,446.631317 7028.321777,424.792694 
	C7030.772949,400.509033 7036.480957,376.827209 7048.087891,355.032806 
	C7063.157227,326.736938 7085.954590,307.861572 7117.491211,300.959320 
	C7144.460449,295.056641 7171.130859,296.969727 7196.965332,307.304291 
	C7199.747070,308.417053 7202.436035,309.850220 7205.304199,310.641541 
	C7210.470215,312.066956 7215.115234,310.118225 7216.562500,305.524628 
	C7222.451172,286.838226 7228.080078,268.070099 7233.846191,249.197464 
	C7225.563477,242.153992 7216.208008,238.741531 7206.608887,236.112808 
	C7188.466309,231.144333 7169.860840,229.667694 7151.149902,230.531097 
	C7097.389648,233.011765 7056.890625,256.261383 7033.750977,306.318787 
	C7032.681641,308.631653 7031.127930,310.720612 7030.052734,312.496185 
	C7022.969238,313.293671 7021.135742,310.090607 7021.184082,304.319763 
	C7021.347168,284.995422 7021.265625,265.668732 7021.205566,246.343170 
	C7021.194336,242.791824 7020.843262,239.241516 7020.679199,236.233078 
	C7019.084961,235.452515 7018.502441,234.920471 7017.917480,234.916534 
	C6997.933105,234.781784 6977.948242,234.747665 6957.964844,234.570724 
	C6952.765625,234.524689 6951.956543,237.603455 6952.191406,243.578537 
M3516.884277,281.926910 
	C3510.808594,292.193909 3504.732666,302.460907 3498.304932,313.322693 
	C3495.771484,312.530121 3493.092285,311.692017 3489.578857,310.592926 
	C3489.578857,285.353851 3489.578857,260.515442 3489.578857,234.703629 
	C3466.453369,234.719650 3444.375000,233.921890 3422.049316,235.219879 
	C3422.049316,398.531158 3422.049316,560.699097 3422.049316,722.732239 
	C3432.523926,724.938965 3485.349609,724.657532 3493.722168,722.232727 
	C3493.722168,718.559143 3493.722168,714.618591 3493.722168,710.678040 
	C3493.722168,635.350159 3493.401123,560.020142 3493.920654,484.695862 
	C3494.074219,462.432037 3495.789551,440.094086 3498.263672,417.954865 
	C3500.789795,395.350616 3506.757324,373.400848 3517.963623,353.327728 
	C3534.747314,323.264252 3559.833252,304.794617 3594.254150,299.572113 
	C3620.610840,295.573181 3646.004639,298.556244 3670.530762,309.144653 
	C3680.053711,313.255737 3683.776855,311.432983 3686.765381,301.736969 
	C3691.474854,286.458038 3696.121338,271.159424 3700.703857,255.842010 
	C3701.433838,253.402344 3701.691406,250.821381 3702.168213,248.301193 
	C3693.610107,242.222549 3684.750244,238.411163 3675.343262,236.073380 
	C3648.458496,229.392105 3621.375000,228.516098 3594.091553,233.691879 
	C3562.604004,239.665115 3536.894287,254.869202 3516.884277,281.926910 
z"/>
<path fill="#C6302C" opacity="1.000000" stroke="none" 
	d="
M96.318794,371.669098 
	C85.452797,349.401672 76.444504,327.227875 70.206474,303.966003 
	C59.227985,263.026794 62.102253,222.847107 76.253914,183.154953 
	C92.490059,137.616287 118.037727,98.539299 159.402115,72.554176 
	C231.665497,27.158302 305.100586,28.903511 377.203064,73.075165 
	C420.820465,99.796173 449.089447,139.760880 467.643127,186.923630 
	C469.324249,191.197006 470.919464,195.504196 473.218689,201.538651 
	C475.098572,196.902084 476.389862,193.945786 477.507843,190.925339 
	C492.499176,150.423508 515.551453,115.447899 549.007996,87.827049 
	C633.730713,17.882235 756.560120,24.584982 828.247681,108.475159 
	C851.633057,135.841293 866.039429,167.648911 876.241028,201.951385 
	C889.090149,245.155991 884.031677,286.951447 869.177063,328.347717 
	C853.287476,372.628143 829.391479,412.600708 802.347412,450.790985 
	C766.814270,500.968933 726.348999,546.997925 683.499756,590.987122 
	C619.676819,656.508057 551.459412,717.122253 479.493469,773.544922 
	C477.667603,774.976440 475.772949,776.320190 473.419464,778.069641 
	C471.821991,777.072510 470.101532,776.213379 468.624603,775.046021 
	C366.126587,694.034607 269.992279,606.323853 186.381973,505.562683 
	C152.048233,464.186096 121.040237,420.463257 96.318794,371.669098 
z"/>
<path fill="#FDFEFF" opacity="1.000000" stroke="none" 
	d="
M1174.000000,724.172485 
	C1122.719360,724.172546 1072.438843,724.172546 1022.394165,724.172546 
	C1020.172363,715.994690 1019.728333,88.174950 1021.866882,76.230537 
	C1024.855713,76.052223 1028.067139,75.694244 1031.278564,75.693382 
	C1110.923462,75.672058 1190.568481,75.692299 1270.213379,75.696007 
	C1295.672485,75.697189 1320.790649,78.471703 1345.162354,86.019226 
	C1380.975464,97.109924 1411.111694,116.281143 1430.909790,149.095322 
	C1446.691040,175.251953 1452.288574,204.111557 1451.973389,234.323120 
	C1451.570312,272.945282 1437.251465,305.659882 1409.671631,332.538330 
	C1398.131104,343.785492 1384.845581,352.736145 1370.234497,359.498291 
	C1364.681030,362.068542 1362.522583,365.329620 1364.968384,371.985596 
	C1368.549805,373.107178 1372.606323,374.411774 1376.683350,375.648682 
	C1402.169312,383.380859 1425.630005,394.889465 1445.601929,412.815247 
	C1473.384521,437.751343 1488.336914,469.442749 1493.485107,505.916504 
	C1497.961182,537.628662 1496.128052,569.207336 1487.515625,600.048218 
	C1470.691895,660.292480 1430.283936,696.865662 1370.997314,713.760803 
	C1348.786621,720.090210 1326.008667,723.478577 1302.961182,723.756226 
	C1260.312012,724.270081 1217.654175,724.073242 1174.000000,724.172485 
M1417.678223,546.441711 
	C1418.356812,530.066040 1417.453003,513.804199 1413.868896,497.772583 
	C1405.424683,460.000763 1383.358276,434.193329 1346.623291,421.201172 
	C1329.174072,415.029877 1311.184082,411.761200 1292.752808,411.659698 
	C1230.446411,411.316589 1168.138306,411.258911 1105.830811,411.158875 
	C1103.301025,411.154816 1100.770020,411.825958 1097.994751,412.217041 
	C1097.994751,495.318970 1097.994751,577.750732 1097.994751,660.643616 
	C1101.288696,660.944153 1103.882324,661.386475 1106.475830,661.387085 
	C1165.453735,661.401184 1224.431763,661.436523 1283.409424,661.301147 
	C1302.137695,661.258179 1320.672852,659.076477 1338.692871,653.826660 
	C1371.985718,644.127380 1396.585938,624.486572 1409.018921,591.257141 
	C1414.202271,577.403442 1416.316650,562.934570 1417.678223,546.441711 
M1338.906250,326.036713 
	C1357.122559,312.069214 1368.371582,293.686218 1373.091675,271.343353 
	C1377.634644,249.838898 1377.342529,228.295441 1371.969727,206.983917 
	C1364.488281,177.307846 1346.171021,157.364578 1317.344971,146.850616 
	C1298.545898,139.993866 1279.014893,138.494293 1259.342285,138.407318 
	C1209.053833,138.184967 1158.763916,138.321747 1108.474487,138.349960 
	C1105.223267,138.351791 1101.972290,138.651596 1098.946777,138.801590 
	C1096.182739,149.685867 1096.698120,340.255432 1099.362183,347.372711 
	C1100.271851,347.543976 1101.236938,347.885162 1102.201660,347.884460 
	C1159.483276,347.843323 1216.772583,348.293610 1274.042725,347.451477 
	C1296.949463,347.114594 1318.767578,340.718658 1338.906250,326.036713 
z"/>
<path fill="#FDFEFF" opacity="1.000000" stroke="none" 
	d="
M4696.110352,686.121460 
	C4662.999512,715.272766 4624.209473,728.543152 4581.646484,732.287292 
	C4537.565430,736.164978 4494.505859,731.533264 4452.755371,716.388916 
	C4393.221191,694.793396 4349.992188,654.758545 4320.413574,599.314209 
	C4298.625000,558.472595 4287.042480,514.622559 4281.661621,468.866791 
	C4276.894043,428.323029 4276.312500,387.728424 4280.075684,347.136353 
	C4285.307129,290.697510 4299.770996,237.107498 4330.491699,188.673325 
	C4365.232422,133.900360 4414.124023,98.170303 4475.994141,79.742470 
	C4517.709473,67.317802 4560.307129,64.261269 4603.589844,67.346924 
	C4633.322754,69.466576 4662.507812,74.135361 4690.634766,84.104149 
	C4747.505371,104.260086 4788.224609,141.379395 4810.035156,199.096634 
	C4807.916016,200.667770 4805.970215,202.384247 4803.779297,203.689682 
	C4791.469238,211.024673 4779.103027,218.264511 4766.749512,225.525665 
	C4765.313965,226.369354 4763.903320,227.306854 4762.369141,227.921753 
	C4754.812012,230.950470 4749.905762,229.263596 4745.969238,222.093246 
	C4738.226562,207.993835 4729.035645,194.979263 4717.758789,183.463242 
	C4695.813965,161.053467 4668.871582,148.155396 4638.563477,141.493576 
	C4595.259766,131.975296 4551.966309,131.652466 4508.758301,141.784103 
	C4452.391113,155.001602 4412.537598,188.566132 4388.111816,240.772430 
	C4375.287109,268.183746 4368.085449,297.213593 4364.019043,327.069580 
	C4357.961914,371.540924 4357.992188,416.148315 4362.293457,460.727356 
	C4365.278809,491.665131 4371.352051,522.027222 4383.271973,550.935364 
	C4409.372559,614.236206 4456.733398,651.033997 4523.979004,661.576050 
	C4561.837891,667.511292 4599.757812,666.038940 4636.981445,655.859070 
	C4692.837402,640.583862 4725.535156,603.894226 4735.766113,547.280212 
	C4738.360352,532.922729 4739.511719,518.195984 4740.008789,503.593994 
	C4740.710449,482.971527 4740.186035,462.307312 4740.186035,440.385254 
	C4729.606934,439.324860 4719.382812,439.979492 4709.214844,439.860962 
	C4699.216797,439.744385 4689.216309,439.835571 4679.216797,439.835571 
	C4668.883789,439.835571 4658.550781,439.835571 4648.217773,439.835571 
	C4638.218262,439.835571 4628.218750,439.835571 4618.219238,439.835571 
	C4607.886230,439.835571 4597.553223,439.835571 4587.220215,439.835571 
	C4577.288086,439.835571 4567.356445,439.835541 4556.468262,439.835541 
	C4555.436523,419.112976 4555.722656,399.369385 4556.273926,378.969818 
	C4642.262207,378.969818 4727.424316,378.969818 4812.525879,378.969818 
	C4814.733887,386.193054 4815.640625,705.548340 4813.387695,723.912170 
	C4790.837402,724.423218 4768.093262,724.116821 4744.296387,724.106567 
	C4744.296387,694.876770 4744.296387,666.691528 4744.296387,639.018127 
	C4735.125977,634.649475 4734.970215,634.561829 4730.958984,641.697754 
	C4721.739746,658.098877 4710.394531,672.804443 4696.110352,686.121460 
z"/>
<path fill="#FCFEFF" opacity="1.000000" stroke="none" 
	d="
M6250.562988,307.364624 
	C6263.030762,337.500092 6267.409668,368.509766 6267.541016,399.966064 
	C6267.979492,504.959961 6267.758301,609.956665 6267.760742,714.952271 
	C6267.761230,717.548889 6267.418945,720.145447 6267.187500,723.439453 
	C6243.580078,723.439453 6220.437012,723.439453 6196.090820,723.439453 
	C6195.894043,719.279419 6195.525879,715.100830 6195.524414,710.922119 
	C6195.491699,613.926086 6195.533691,516.930054 6195.470215,419.934052 
	C6195.457031,399.254883 6194.891602,378.567566 6189.832520,358.368469 
	C6188.060059,351.291992 6185.749023,344.261230 6182.844238,337.574280 
	C6174.169434,317.603210 6159.727051,302.707581 6138.851074,296.618988 
	C6087.643555,281.683807 6038.643066,285.189972 5994.432617,318.267822 
	C5975.176270,332.675079 5962.425293,351.918762 5954.111328,374.281097 
	C5945.434082,397.620789 5941.608887,421.926208 5940.175293,446.632324 
	C5939.500488,458.267883 5939.558594,469.954956 5939.550781,481.618835 
	C5939.501953,557.949036 5939.525391,634.279236 5939.525391,710.609436 
	C5939.525391,714.552734 5939.525391,718.495972 5939.525391,722.153503 
	C5931.731934,724.536560 5881.124512,725.146301 5868.314453,723.279297 
	C5866.164062,714.474609 5866.277832,46.989799 5868.504395,38.704674 
	C5891.642090,38.704674 5914.850098,38.704674 5939.097656,38.704674 
	C5939.097656,127.092979 5939.097656,214.944809 5939.097656,302.231750 
	C5947.824707,306.918213 5947.920898,306.986206 5952.690918,300.240845 
	C5967.299805,279.584351 5984.768555,261.994385 6006.715820,249.078598 
	C6028.336914,236.354324 6051.754395,228.873047 6076.593262,226.710464 
	C6106.623047,224.095871 6136.500488,225.438232 6165.821289,233.560135 
	C6205.588379,244.575806 6234.237305,268.291016 6250.562988,307.364624 
z"/>
<path fill="#FDFEFF" opacity="1.000000" stroke="none" 
	d="
M1983.989990,675.989014 
	C1952.020264,709.831238 1912.427246,726.226929 1867.674683,731.398499 
	C1829.624390,735.795532 1791.855957,734.278931 1754.619873,724.479919 
	C1688.306519,707.029053 1644.061279,665.318054 1620.149170,601.624878 
	C1602.985962,555.908447 1599.246460,508.259064 1601.249634,459.926727 
	C1602.693726,425.081146 1608.175537,390.981964 1621.321899,358.472351 
	C1652.170288,282.188141 1708.514404,238.535385 1790.052490,227.838394 
	C1822.687378,223.556992 1855.302124,224.496201 1887.355469,232.609741 
	C1955.661743,249.899887 1998.390015,293.008209 2015.817017,361.198059 
	C2020.783813,380.633026 2023.668579,400.438080 2023.947266,420.491028 
	C2024.229736,440.814941 2023.580811,461.150543 2023.723633,481.478302 
	C2023.789062,490.806213 2019.500610,495.528717 2008.890747,496.124573 
	C2005.899902,496.292542 2002.892212,496.168579 1999.892334,496.168610 
	C1897.226685,496.169678 1794.560913,496.169556 1691.895264,496.169586 
	C1687.626465,496.169586 1683.357666,496.169556 1678.517090,496.169556 
	C1678.114380,498.887482 1677.546509,500.763489 1677.604980,502.619751 
	C1678.472778,530.114624 1682.647705,557.054504 1692.649292,582.783752 
	C1709.783569,626.861450 1741.750732,653.952332 1787.859131,664.163025 
	C1816.570801,670.521240 1845.422607,670.047913 1874.202515,664.481201 
	C1912.838135,657.008118 1940.517456,634.943176 1958.754517,600.458679 
	C1964.301758,589.969543 1967.928101,588.870300 1978.272949,594.937378 
	C1990.920166,602.354492 2003.453613,609.965820 2016.017578,617.524109 
	C2016.852417,618.026367 2017.530396,618.789246 2018.982178,620.030212 
	C2011.160645,640.836487 1999.397095,659.101990 1983.989990,675.989014 
M1793.000000,435.837250 
	C1845.825195,435.837250 1898.650391,435.837250 1951.667480,435.837250 
	C1952.047363,432.903809 1952.449707,431.302124 1952.432129,429.705109 
	C1952.201172,408.955292 1949.418091,388.537598 1943.457275,368.663818 
	C1930.923706,326.875732 1903.939209,299.929871 1860.869751,290.654236 
	C1831.768433,284.386780 1802.666992,285.379974 1773.942139,293.680695 
	C1738.890137,303.809845 1713.922241,325.720703 1698.434937,358.557434 
	C1691.448608,373.370087 1686.544678,388.911163 1683.666016,405.040649 
	C1681.931763,414.757843 1680.538452,424.535889 1678.745972,435.837189 
	C1717.285522,435.837189 1754.142822,435.837189 1793.000000,435.837250 
z"/>
<path fill="#FDFEFF" opacity="1.000000" stroke="none" 
	d="
M5044.025391,496.169189 
	C5035.093262,496.169220 5027.155273,496.169220 5018.598633,496.169220 
	C5018.273438,499.578705 5017.727539,502.124634 5017.836914,504.642029 
	C5018.916016,529.395142 5022.638184,553.713623 5030.819824,577.175232 
	C5048.341797,627.422791 5083.969238,656.693420 5135.924316,665.813232 
	C5162.017090,670.393372 5188.334961,669.719666 5214.456543,664.527588 
	C5253.044922,656.857422 5280.776367,634.979675 5299.004883,600.487183 
	C5304.579590,589.938843 5308.117188,588.851074 5318.500977,594.933655 
	C5331.981934,602.830750 5345.352539,610.916504 5359.427734,619.312805 
	C5354.301270,633.987915 5346.927734,646.877930 5338.155762,658.979553 
	C5309.223145,698.893250 5269.535156,721.395874 5221.484375,729.370300 
	C5178.950684,736.429016 5136.535156,735.437439 5094.617676,724.396729 
	C5029.122070,707.145691 4985.222168,665.998718 4960.979004,603.278259 
	C4949.464355,573.489807 4943.907715,542.409424 4942.056641,510.640594 
	C4939.996582,475.268890 4940.875488,440.034424 4947.861328,405.140381 
	C4955.569824,366.638702 4970.237305,331.211060 4994.863281,300.375305 
	C5025.770020,261.674744 5066.590332,239.347153 5114.727539,230.226135 
	C5151.118652,223.330948 5187.666992,223.417328 5223.901855,231.832886 
	C5293.323242,247.955780 5337.330078,290.545837 5355.630371,359.440887 
	C5360.775879,378.814423 5363.820801,398.608673 5364.062012,418.672668 
	C5364.318359,439.994354 5364.041504,461.326813 5363.686035,482.649384 
	C5363.540527,491.331940 5359.528320,495.242554 5350.979492,496.061188 
	C5348.004883,496.346008 5344.984863,496.166046 5341.985352,496.166138 
	C5242.997070,496.169556 5144.008789,496.169067 5044.025391,496.169189 
M5111.609863,294.330200 
	C5080.659668,304.256104 5057.208008,323.235779 5041.977051,352.095825 
	C5029.028320,376.632812 5022.923828,403.116577 5019.915527,430.453125 
	C5019.751465,431.943817 5020.328613,433.516113 5020.579590,435.177856 
	C5111.379883,435.177856 5201.506836,435.177856 5291.811035,435.177856 
	C5292.224609,433.331085 5292.772949,432.070435 5292.748047,430.821442 
	C5292.222168,405.002045 5288.764648,379.664124 5279.046387,355.560120 
	C5266.445801,324.305206 5244.177246,303.208771 5211.703613,293.551147 
	C5178.871094,283.786957 5145.974121,284.751312 5111.609863,294.330200 
z"/>
<path fill="#FDFEFF" opacity="1.000000" stroke="none" 
	d="
M6526.415527,244.370789 
	C6554.431641,232.475906 6582.955566,226.673279 6612.588867,225.838440 
	C6637.344727,225.141006 6661.887695,226.473053 6685.973633,232.650620 
	C6753.360352,249.933502 6795.952148,292.292084 6813.684570,359.516022 
	C6818.796387,378.895599 6821.853516,398.678253 6822.089355,418.737885 
	C6822.339844,440.054626 6821.641113,461.382904 6821.922852,482.698669 
	C6822.025391,490.460297 6817.721680,494.818695 6808.966309,496.044006 
	C6806.022461,496.456055 6802.977539,496.166168 6799.979004,496.166260 
	C6696.682129,496.169525 6593.385254,496.169098 6490.088379,496.169128 
	C6485.819336,496.169128 6481.550781,496.169067 6476.637207,496.169067 
	C6476.308594,499.545959 6475.750488,502.088593 6475.864746,504.600677 
	C6477.003906,529.677429 6480.772949,554.301636 6489.185547,578.053833 
	C6506.974609,628.280334 6542.921875,657.090149 6594.851074,665.952026 
	C6620.621094,670.349976 6646.599609,669.670227 6672.379395,664.553162 
	C6710.945312,656.898132 6738.730469,635.104675 6756.968262,600.609375 
	C6762.578125,589.998474 6766.181152,588.850037 6776.429688,594.846008 
	C6789.917480,602.736755 6803.280273,610.840393 6817.205566,619.156311 
	C6816.247559,621.981445 6815.636719,624.490540 6814.580566,626.796021 
	C6791.052246,678.191589 6752.119629,711.857300 6697.247070,725.378845 
	C6644.439453,738.391541 6591.515625,737.159973 6539.502441,720.406250 
	C6479.866699,701.197327 6440.887695,660.370178 6418.745605,602.605713 
	C6407.320801,572.799927 6401.823730,541.703552 6400.056152,509.938141 
	C6398.107422,474.912628 6398.860840,440.002808 6405.857422,405.457611 
	C6415.398438,358.341553 6434.762207,316.284698 6469.488281,282.179077 
	C6485.841797,266.117371 6504.810547,253.933105 6526.415527,244.370789 
M6533.000000,435.837982 
	C6604.964844,435.701965 6676.930176,435.566467 6748.895020,435.408875 
	C6749.169922,435.408295 6749.457520,435.106171 6749.713867,434.911591 
	C6749.978027,434.711151 6750.211426,434.469940 6750.991211,433.764069 
	C6750.257812,405.415588 6746.878906,377.165588 6734.868652,350.545898 
	C6721.753418,321.476593 6699.777832,302.426178 6669.265137,293.394592 
	C6637.772461,284.072968 6606.085449,284.643555 6574.557617,293.033661 
	C6540.911621,301.987518 6515.731445,321.927338 6499.575684,352.913422 
	C6486.913086,377.200073 6480.937012,403.395294 6477.941406,430.393494 
	C6477.775391,431.890533 6478.332031,433.467804 6478.671387,435.837921 
	C6496.459961,435.837921 6513.729980,435.837921 6533.000000,435.837982 
z"/>
<path fill="#FDFEFF" opacity="1.000000" stroke="none" 
	d="
M3164.560791,235.330078 
	C3233.963867,256.929413 3272.218262,304.848022 3285.892822,373.981201 
	C3293.060059,410.217590 3292.928711,446.839081 3290.376465,483.511414 
	C3289.814209,491.587830 3286.152588,495.268372 3278.053223,496.067505 
	C3275.081299,496.360748 3272.059570,496.166656 3269.060547,496.166748 
	C3165.420410,496.169678 3061.780273,496.169189 2958.140137,496.169220 
	C2953.900391,496.169220 2949.660645,496.169220 2944.207275,496.169220 
	C2944.814941,504.671661 2945.253174,511.872375 2945.858154,519.059082 
	C2947.484863,538.383362 2951.093262,557.317078 2957.327881,575.709839 
	C2974.681641,626.905701 3010.536621,656.723938 3063.345703,665.873474 
	C3089.441162,670.394714 3115.753174,669.707703 3141.860352,664.438110 
	C3180.028320,656.734131 3207.546387,635.078125 3225.722168,601.007568 
	C3227.275635,598.095459 3228.822510,595.179810 3230.684570,591.679016 
	C3234.409912,592.005249 3238.583984,591.221375 3241.431152,592.812256 
	C3256.491943,601.227722 3271.218750,610.240784 3286.403809,619.249756 
	C3281.134277,634.345032 3273.696289,647.263123 3264.862793,659.357666 
	C3236.040283,698.821289 3196.701904,721.289062 3149.010498,729.275452 
	C3106.146729,736.453369 3063.400879,735.509338 3021.183838,724.291199 
	C2955.756836,706.905518 2912.005127,665.644287 2887.808594,602.900940 
	C2875.564697,571.151306 2870.258057,537.991760 2868.535156,504.262390 
	C2866.590332,466.184937 2868.631592,428.318939 2878.022461,391.142975 
	C2887.821045,352.351440 2904.935303,317.354523 2932.615967,288.084351 
	C2965.082031,253.753586 3005.732666,235.169937 3051.895996,228.488388 
	C3089.517578,223.043182 3126.997070,224.371811 3164.560791,235.330078 
M2976.477783,339.585114 
	C2957.372070,368.378418 2949.976074,400.775665 2946.379883,434.431458 
	C2957.620850,436.717377 3212.161865,436.278229 3219.954590,433.943024 
	C3219.571289,409.009705 3216.430176,384.408600 3207.926514,360.642273 
	C3193.910156,321.468231 3166.061035,298.405060 3125.609619,290.081909 
	C3105.826660,286.011475 3085.849121,285.764130 3065.942139,288.409668 
	C3029.818359,293.210358 2998.951904,307.725281 2976.477783,339.585114 
z"/>
<path fill="#FEFEFF" opacity="1.000000" stroke="none" 
	d="
M3988.000000,724.167847 
	C3909.722168,724.167847 3832.444336,724.167847 3754.992676,724.167847 
	C3754.324219,722.308899 3753.540283,721.126099 3753.522461,719.932007 
	C3753.084961,690.266235 3752.731201,660.608765 3758.508789,631.281189 
	C3765.394287,596.330322 3782.447754,566.877686 3808.834961,543.509705 
	C3833.004395,522.105591 3858.192871,501.762848 3883.839355,482.138123 
	C3916.122803,457.435364 3949.536865,434.215973 3982.068359,409.829742 
	C4007.161621,391.019318 4031.049561,370.816895 4050.807861,346.109741 
	C4082.083496,307.001404 4091.169434,262.749573 4081.241699,214.403580 
	C4073.334961,175.899811 4049.836914,150.930191 4011.730469,141.103760 
	C3972.105225,130.885666 3932.506104,131.383621 3893.776611,145.858536 
	C3856.788574,159.682465 3828.768799,184.386978 3808.270020,217.899475 
	C3807.053467,219.888809 3806.085205,222.065170 3804.654297,223.881302 
	C3801.217529,228.243439 3794.371094,229.292358 3790.662598,225.489838 
	C3776.271729,210.733841 3762.144287,195.721115 3747.640625,180.512573 
	C3758.801025,161.415176 3772.402588,145.134445 3788.006104,130.534225 
	C3828.164551,92.957764 3875.767334,72.340195 3930.578613,67.673813 
	C3969.172852,64.388107 4007.281494,66.281197 4044.282471,78.089371 
	C4111.595703,99.571167 4149.713379,146.074615 4160.155762,215.747238 
	C4169.163086,275.844604 4154.302246,329.382935 4116.368652,376.635864 
	C4110.741699,383.645477 4104.866699,390.493225 4098.672852,397.003418 
	C4070.067871,427.068420 4037.520264,452.521179 4004.285645,477.150055 
	C3971.352539,501.555359 3938.217773,525.694214 3905.556396,550.457703 
	C3888.290039,563.548523 3872.050293,577.929565 3858.256592,594.834351 
	C3846.241455,609.559814 3837.460205,625.789734 3834.811523,644.858276 
	C3834.133789,649.738647 3834.035645,654.699524 3833.574219,660.932617 
	C3847.942627,661.891052 3861.479248,661.290710 3874.978516,661.397339 
	C3888.643311,661.505310 3902.309814,661.421143 3915.975586,661.421143 
	C3929.641357,661.421143 3943.306885,661.421143 3956.972656,661.421143 
	C3970.638428,661.421143 3984.304199,661.421143 3997.969971,661.421143 
	C4011.302490,661.421143 4024.634766,661.421143 4037.967285,661.421143 
	C4051.633057,661.421143 4065.298828,661.421143 4078.964600,661.421143 
	C4092.630371,661.421143 4106.295898,661.421143 4119.961914,661.421143 
	C4133.578613,661.421143 4147.195312,661.421143 4160.527344,661.421143 
	C4162.900391,669.343933 4163.416504,710.537598 4161.340332,723.989014 
	C4104.045898,724.373718 4046.521240,724.071899 3988.000000,724.167847 
z"/>
<path fill="#FCFEFE" opacity="1.000000" stroke="none" 
	d="
M2548.751953,457.999756 
	C2548.752197,403.089539 2548.752197,349.179382 2548.752197,294.007507 
	C2520.140381,294.007507 2492.666504,294.007507 2464.509521,294.007507 
	C2464.509521,273.662506 2464.509521,254.585144 2464.509521,234.239197 
	C2492.563477,234.239197 2520.037598,234.239197 2548.844727,234.239197 
	C2548.844727,199.202377 2548.844727,165.401733 2548.844727,131.007187 
	C2573.267822,126.982887 2596.455078,123.162254 2621.064697,119.107239 
	C2622.066650,157.913849 2620.848633,195.390320 2621.807373,234.282944 
	C2648.310547,234.292068 2674.172852,234.304413 2700.035156,234.308914 
	C2725.668213,234.313354 2751.301514,234.309891 2776.705566,234.309891 
	C2779.135498,241.980164 2779.689209,279.292664 2777.561279,293.756317 
	C2751.982422,293.948730 2726.150146,293.816010 2700.321777,293.840210 
	C2674.688965,293.864227 2649.056152,293.845459 2622.439453,293.845459 
	C2622.071045,297.215576 2621.492432,300.042389 2621.491699,302.869385 
	C2621.462891,397.523590 2621.325684,492.178497 2621.714600,586.831177 
	C2621.763428,598.684448 2623.345215,610.877075 2626.455078,622.303284 
	C2633.955322,649.860901 2654.479492,665.954834 2682.979004,668.063171 
	C2710.309326,670.084961 2736.034180,665.385620 2759.105225,649.485413 
	C2767.833496,643.470154 2771.760254,644.790405 2775.959717,654.184448 
	C2782.467773,668.741943 2788.866211,683.348389 2795.386963,698.105896 
	C2785.424561,708.799744 2773.644043,715.482849 2760.908936,720.606323 
	C2731.860596,732.292969 2701.587402,735.149780 2670.618164,732.796021 
	C2651.538574,731.345825 2632.954102,727.666748 2615.501465,719.644714 
	C2581.010498,703.790955 2562.164307,675.746948 2553.877197,639.616394 
	C2549.750977,621.624451 2548.859863,603.325195 2548.798340,584.984253 
	C2548.657471,542.989807 2548.752686,500.994629 2548.751953,457.999756 
z"/>
<path fill="#FDFEFF" opacity="1.000000" stroke="none" 
	d="
M2180.281250,635.597107 
	C2178.808594,617.519043 2176.370850,600.290161 2176.298340,583.051331 
	C2175.910889,491.093506 2176.115234,399.133179 2176.114746,307.173706 
	C2176.114746,303.242035 2176.114746,299.310364 2176.114746,294.404083 
	C2147.733643,293.087158 2120.202881,294.409637 2091.693115,293.575348 
	C2090.117920,274.055969 2091.168945,254.964676 2090.937012,234.725769 
	C2119.483398,234.725769 2146.951416,234.725769 2175.821533,234.725769 
	C2175.925537,222.456192 2176.057617,211.279312 2176.104248,200.102097 
	C2176.151855,188.773956 2176.114746,177.445465 2176.114746,166.117126 
	C2176.114746,154.826218 2176.114746,143.535324 2176.114746,131.072571 
	C2200.094482,127.100311 2223.495605,123.223885 2248.348145,119.107048 
	C2248.348145,158.112228 2248.348145,195.582367 2248.348145,234.008041 
	C2301.073730,234.008041 2352.582520,234.008041 2403.733643,234.008041 
	C2406.438232,241.606232 2407.134277,277.893372 2404.993408,293.535645 
	C2379.383057,294.192566 2353.531982,293.734711 2327.695312,293.818115 
	C2301.759277,293.901855 2275.822754,293.836517 2249.124023,293.836517 
	C2248.823975,297.566223 2248.390137,300.449951 2248.389160,303.333801 
	C2248.359863,396.959198 2248.219971,490.585205 2248.569580,584.209290 
	C2248.613770,596.090881 2250.062256,608.258423 2252.923096,619.781311 
	C2260.328125,649.604370 2281.879883,666.582520 2312.553955,668.258606 
	C2339.211426,669.715149 2364.209717,664.869873 2386.616455,649.341187 
	C2395.358154,643.283020 2398.984619,644.656128 2403.354492,654.447693 
	C2409.722656,668.716858 2416.000732,683.026123 2422.429932,697.573364 
	C2416.638184,705.610413 2408.634766,710.342407 2400.523193,714.738037 
	C2380.269531,725.713318 2358.338379,730.677429 2335.522949,732.642090 
	C2309.694336,734.866394 2284.246094,733.197449 2259.365723,725.798950 
	C2220.940674,714.372620 2196.039307,689.137451 2184.202637,650.935791 
	C2182.726074,646.169983 2181.662598,641.276184 2180.281250,635.597107 
z"/>
<path fill="#FDFEFF" opacity="1.000000" stroke="none" 
	d="
M5731.786621,293.836151 
	C5683.885742,293.836121 5636.960449,293.836121 5589.187500,293.836121 
	C5588.965332,298.073761 5588.648438,301.314514 5588.647461,304.555359 
	C5588.623535,396.217499 5588.430176,487.880585 5588.845703,579.540833 
	C5588.908203,593.405823 5590.313477,607.643433 5593.730469,621.036987 
	C5601.175293,650.219604 5622.250488,666.437805 5652.207031,668.216431 
	C5678.855957,669.798828 5704.044434,665.291931 5726.316895,649.549866 
	C5730.445312,646.632202 5734.594238,645.498901 5740.438477,647.349182 
	C5747.690918,663.705627 5755.217773,680.680115 5762.732422,697.626343 
	C5756.480957,705.810303 5748.549316,710.702026 5740.323730,714.982422 
	C5708.556152,731.514404 5674.421387,735.216064 5639.298340,732.871582 
	C5622.610352,731.757568 5606.290039,728.700623 5590.566895,722.718689 
	C5555.923340,709.538269 5534.414062,684.511230 5524.034668,649.371399 
	C5517.934570,628.718018 5516.290039,607.510559 5516.290527,586.104126 
	C5516.293457,493.442017 5516.290527,400.779907 5516.289551,308.117798 
	C5516.289551,303.851593 5516.289551,299.585358 5516.289551,294.042511 
	C5487.900879,294.042511 5460.437012,294.042511 5432.216309,294.042511 
	C5432.216309,273.695740 5432.216309,254.630615 5432.216309,234.640839 
	C5460.003906,234.640839 5487.228027,234.640839 5515.758789,234.640839 
	C5516.808105,222.678986 5516.144043,211.465652 5516.262695,200.305389 
	C5516.383789,188.973907 5516.289062,177.640137 5516.289062,166.307358 
	C5516.289062,155.001801 5516.289551,143.696243 5516.289551,131.110397 
	C5540.154297,127.142044 5563.565918,123.249001 5588.506836,119.101616 
	C5588.506836,158.045502 5588.506836,195.524185 5588.506836,234.012680 
	C5641.320801,234.012680 5692.830078,234.012680 5743.980957,234.012680 
	C5746.599121,241.762070 5747.239746,278.801483 5745.147949,293.482208 
	C5741.173828,293.595795 5736.967773,293.715973 5731.786621,293.836151 
z"/>
<path fill="#FDFEFF" opacity="1.000000" stroke="none" 
	d="
M6952.195801,242.654327 
	C6951.956543,237.603455 6952.765625,234.524689 6957.964844,234.570724 
	C6977.948242,234.747665 6997.933105,234.781784 7017.917480,234.916534 
	C7018.502441,234.920471 7019.084961,235.452515 7020.679199,236.233078 
	C7020.843262,239.241516 7021.194336,242.791824 7021.205566,246.343170 
	C7021.265625,265.668732 7021.347168,284.995422 7021.184082,304.319763 
	C7021.135742,310.090607 7022.969238,313.293671 7030.052734,312.496185 
	C7031.127930,310.720612 7032.681641,308.631653 7033.750977,306.318787 
	C7056.890625,256.261383 7097.389648,233.011765 7151.149902,230.531097 
	C7169.860840,229.667694 7188.466309,231.144333 7206.608887,236.112808 
	C7216.208008,238.741531 7225.563477,242.153992 7233.846191,249.197464 
	C7228.080078,268.070099 7222.451172,286.838226 7216.562500,305.524628 
	C7215.115234,310.118225 7210.470215,312.066956 7205.304199,310.641541 
	C7202.436035,309.850220 7199.747070,308.417053 7196.965332,307.304291 
	C7171.130859,296.969727 7144.460449,295.056641 7117.491211,300.959320 
	C7085.954590,307.861572 7063.157227,326.736938 7048.087891,355.032806 
	C7036.480957,376.827209 7030.772949,400.509033 7028.321777,424.792694 
	C7026.117676,446.631317 7024.761230,468.642395 7024.627930,490.587128 
	C7024.184082,563.555786 7024.459473,636.528809 7024.459473,709.500122 
	C7024.459473,713.803894 7024.459961,718.107666 7024.459961,723.835266 
	C7000.361328,724.468079 6976.965332,724.172546 6952.191406,724.010803 
	C6952.191406,563.213074 6952.191406,403.395813 6952.195801,242.654327 
z"/>
<path fill="#FEFEFF" opacity="1.000000" stroke="none" 
	d="
M3517.313721,281.351990 
	C3536.894287,254.869202 3562.604004,239.665115 3594.091553,233.691879 
	C3621.375000,228.516098 3648.458496,229.392105 3675.343262,236.073380 
	C3684.750244,238.411163 3693.610107,242.222549 3702.168213,248.301193 
	C3701.691406,250.821381 3701.433838,253.402344 3700.703857,255.842010 
	C3696.121338,271.159424 3691.474854,286.458038 3686.765381,301.736969 
	C3683.776855,311.432983 3680.053711,313.255737 3670.530762,309.144653 
	C3646.004639,298.556244 3620.610840,295.573181 3594.254150,299.572113 
	C3559.833252,304.794617 3534.747314,323.264252 3517.963623,353.327728 
	C3506.757324,373.400848 3500.789795,395.350616 3498.263672,417.954865 
	C3495.789551,440.094086 3494.074219,462.432037 3493.920654,484.695862 
	C3493.401123,560.020142 3493.722168,635.350159 3493.722168,710.678040 
	C3493.722168,714.618591 3493.722168,718.559143 3493.722168,722.232727 
	C3485.349609,724.657532 3432.523926,724.938965 3422.049316,722.732239 
	C3422.049316,560.699097 3422.049316,398.531158 3422.049316,235.219879 
	C3444.375000,233.921890 3466.453369,234.719650 3489.578857,234.703629 
	C3489.578857,260.515442 3489.578857,285.353851 3489.578857,310.592926 
	C3493.092285,311.692017 3495.771484,312.530121 3498.304932,313.322693 
	C3504.732666,302.460907 3510.808594,292.193909 3517.313721,281.351990 
z"/>
<path fill="#46B3E0" opacity="1.000000" stroke="none" 
	d="
M1417.654907,547.373535 
	C1416.316650,562.934570 1414.202271,577.403442 1409.018921,591.257141 
	C1396.585938,624.486572 1371.985718,644.127380 1338.692871,653.826660 
	C1320.672852,659.076477 1302.137695,661.258179 1283.409424,661.301147 
	C1224.431763,661.436523 1165.453735,661.401184 1106.475830,661.387085 
	C1103.882324,661.386475 1101.288696,660.944153 1097.994751,660.643616 
	C1097.994751,577.750732 1097.994751,495.318970 1097.994751,412.217041 
	C1100.770020,411.825958 1103.301025,411.154816 1105.830811,411.158875 
	C1168.138306,411.258911 1230.446411,411.316589 1292.752808,411.659698 
	C1311.184082,411.761200 1329.174072,415.029877 1346.623291,421.201172 
	C1383.358276,434.193329 1405.424683,460.000763 1413.868896,497.772583 
	C1417.453003,513.804199 1418.356812,530.066040 1417.654907,547.373535 
z"/>
<path fill="#46B3E0" opacity="1.000000" stroke="none" 
	d="
M1338.331787,326.469360 
	C1318.767578,340.718658 1296.949463,347.114594 1274.042725,347.451477 
	C1216.772583,348.293610 1159.483276,347.843323 1102.201660,347.884460 
	C1101.236938,347.885162 1100.271851,347.543976 1099.362183,347.372711 
	C1096.698120,340.255432 1096.182739,149.685867 1098.946777,138.801590 
	C1101.972290,138.651596 1105.223267,138.351791 1108.474487,138.349960 
	C1158.763916,138.321747 1209.053833,138.184967 1259.342285,138.407318 
	C1279.014893,138.494293 1298.545898,139.993866 1317.344971,146.850616 
	C1346.171021,157.364578 1364.488281,177.307846 1371.969727,206.983917 
	C1377.342529,228.295441 1377.634644,249.838898 1373.091675,271.343353 
	C1368.371582,293.686218 1357.122559,312.069214 1338.331787,326.469360 
z"/>
<path fill="#46B4E0" opacity="1.000000" stroke="none" 
	d="
M1792.000000,435.837219 
	C1754.142822,435.837189 1717.285522,435.837189 1678.745972,435.837189 
	C1680.538452,424.535889 1681.931763,414.757843 1683.666016,405.040649 
	C1686.544678,388.911163 1691.448608,373.370087 1698.434937,358.557434 
	C1713.922241,325.720703 1738.890137,303.809845 1773.942139,293.680695 
	C1802.666992,285.379974 1831.768433,284.386780 1860.869751,290.654236 
	C1903.939209,299.929871 1930.923706,326.875732 1943.457275,368.663818 
	C1949.418091,388.537598 1952.201172,408.955292 1952.432129,429.705109 
	C1952.449707,431.302124 1952.047363,432.903809 1951.667480,435.837250 
	C1898.650391,435.837250 1845.825195,435.837250 1792.000000,435.837219 
z"/>
<path fill="#46B4E0" opacity="1.000000" stroke="none" 
	d="
M5112.386719,294.138123 
	C5145.974121,284.751312 5178.871094,283.786957 5211.703613,293.551147 
	C5244.177246,303.208771 5266.445801,324.305206 5279.046387,355.560120 
	C5288.764648,379.664124 5292.222168,405.002045 5292.748047,430.821442 
	C5292.772949,432.070435 5292.224609,433.331085 5291.811035,435.177856 
	C5201.506836,435.177856 5111.379883,435.177856 5020.579590,435.177856 
	C5020.328613,433.516113 5019.751465,431.943817 5019.915527,430.453125 
	C5022.923828,403.116577 5029.028320,376.632812 5041.977051,352.095825 
	C5057.208008,323.235779 5080.659668,304.256104 5112.386719,294.138123 
z"/>
<path fill="#46B4E0" opacity="1.000000" stroke="none" 
	d="
M6532.000000,435.837952 
	C6513.729980,435.837921 6496.459961,435.837921 6478.671387,435.837921 
	C6478.332031,433.467804 6477.775391,431.890533 6477.941406,430.393494 
	C6480.937012,403.395294 6486.913086,377.200073 6499.575684,352.913422 
	C6515.731445,321.927338 6540.911621,301.987518 6574.557617,293.033661 
	C6606.085449,284.643555 6637.772461,284.072968 6669.265137,293.394592 
	C6699.777832,302.426178 6721.753418,321.476593 6734.868652,350.545898 
	C6746.878906,377.165588 6750.257812,405.415588 6750.991211,433.764069 
	C6750.211426,434.469940 6749.978027,434.711151 6749.713867,434.911591 
	C6749.457520,435.106171 6749.169922,435.408295 6748.895020,435.408875 
	C6676.930176,435.566467 6604.964844,435.701965 6532.000000,435.837952 
z"/>
<path fill="#46B4E0" opacity="1.000000" stroke="none" 
	d="
M2976.905273,339.002045 
	C2998.951904,307.725281 3029.818359,293.210358 3065.942139,288.409668 
	C3085.849121,285.764130 3105.826660,286.011475 3125.609619,290.081909 
	C3166.061035,298.405060 3193.910156,321.468231 3207.926514,360.642273 
	C3216.430176,384.408600 3219.571289,409.009705 3219.954590,433.943024 
	C3212.161865,436.278229 2957.620850,436.717377 2946.379883,434.431458 
	C2949.976074,400.775665 2957.372070,368.378418 2976.905273,339.002045 
z"/>
</svg>